<?xml version="1.0" encoding="UTF-8" standalone="no"?>
<svg width="88px" height="88px" viewBox="0 0 88 88" version="1.1" xmlns="http://www.w3.org/2000/svg" xmlns:xlink="http://www.w3.org/1999/xlink">
    <!-- Generator: Sketch 3.8.3 (29802) - http://www.bohemiancoding.com/sketch -->
    <title>blog</title>
    <desc>Created with Sketch.</desc>
    <defs></defs>
    <g id="Page-1" stroke="none" stroke-width="1" fill="none" fill-rule="evenodd">
        <g id="blog" fill="#85BEC4">
            <g id="Group">
                <path d="M15.2737,72.7261 C-0.5912,56.8612 -0.5911,31.1388 15.274,15.2738 C31.1388,-0.5912 56.8612,-0.5912 72.726,15.2738 C88.5911,31.1388 88.5911,56.8611 72.7261,72.726 C56.8612,88.591 31.1387,88.5912 15.2737,72.7261 L15.2737,72.7261 Z M13.0643,74.9358 C-4.0209,57.8504 -4.0209,30.1498 13.0644,13.0643 C30.1498,-4.0208 57.8504,-4.0208 74.9358,13.0643 C92.021,30.1497 92.0209,57.8503 74.9357,74.9356 C57.8502,92.0209 30.1497,92.021 13.0643,74.9358 L13.0643,74.9358 Z" id="Shape"></path>
                <path d="M60.8644593,37.415839 C60.9165483,37.3705233 60.9678784,37.3237913 61.0174057,37.274416 L63.0831319,35.2189671 C64.3054702,34.0027101 64.3054702,32.0307177 63.0831319,30.8144607 L59.2467562,26.9971715 C58.0244179,25.7809144 56.0425656,25.7809144 54.8203221,26.9971715 L52.754596,29.0526204 C52.7049738,29.1019957 52.6580082,29.1530704 52.6124658,29.2049003 L60.8644593,37.415839 L60.8644593,37.415839 Z" id="Shape"></path>
                <polygon id="Shape" points="31.5810927 58.3427673 35.6609303 62.4023072 30.8544072 63.125283 26.047979 63.8482587 26.7745696 59.0656486 27.5011602 54.283133"></polygon>
                <polygon id="Shape" points="51.5004729 30.3006929 28.4825035 53.2040506 36.7454081 61.4258463 59.7633775 38.5223941"></polygon>
            </g>
        </g>
    </g>
</svg>