<?xml version="1.0" encoding="UTF-8" standalone="no"?>
<svg width="699px" height="409px" viewBox="0 0 699 409" version="1.1" xmlns="http://www.w3.org/2000/svg" xmlns:xlink="http://www.w3.org/1999/xlink">
    <!-- Generator: Sketch 3.8.3 (29802) - http://www.bohemiancoding.com/sketch -->
    <title>Group</title>
    <desc>Created with Sketch.</desc>
    <defs></defs>
    <g id="Page-1" stroke="none" stroke-width="1" fill="none" fill-rule="evenodd" font-size="16" font-family="ArialMT, Arial" font-weight="normal">
        <g id="Desktop-HD-Copy" transform="translate(-365.000000, -307.000000)" fill="#D7D8E0">
            <g id="Group" transform="translate(364.000000, 303.000000)">
                <text id="+">
                    <tspan x="240.828125" y="14">+</tspan>
                </text>
                <text id="+">
                    <tspan x="220.828125" y="14">+</tspan>
                </text>
                <text id="+">
                    <tspan x="200.828125" y="14">+</tspan>
                </text>
                <text id="+">
                    <tspan x="180.828125" y="14">+</tspan>
                </text>
                <text id="+">
                    <tspan x="230.828125" y="34">+</tspan>
                </text>
                <text id="+">
                    <tspan x="210.828125" y="54">+</tspan>
                </text>
                <text id="+">
                    <tspan x="210.828125" y="34">+</tspan>
                </text>
                <text id="+">
                    <tspan x="190.828125" y="34">+</tspan>
                </text>
                <text id="+">
                    <tspan x="190.828125" y="54">+</tspan>
                </text>
                <text id="+">
                    <tspan x="170.828125" y="54">+</tspan>
                </text>
                <text id="+">
                    <tspan x="150.828125" y="54">+</tspan>
                </text>
                <text id="+">
                    <tspan x="170.828125" y="34">+</tspan>
                </text>
                <text id="+">
                    <tspan x="190.828125" y="74">+</tspan>
                </text>
                <text id="+">
                    <tspan x="170.828125" y="94">+</tspan>
                </text>
                <text id="+">
                    <tspan x="170.828125" y="74">+</tspan>
                </text>
                <text id="+">
                    <tspan x="150.828125" y="74">+</tspan>
                </text>
                <text id="+">
                    <tspan x="150.828125" y="94">+</tspan>
                </text>
                <text id="+">
                    <tspan x="130.828125" y="94">+</tspan>
                </text>
                <text id="+">
                    <tspan x="110.828125" y="94">+</tspan>
                </text>
                <text id="+">
                    <tspan x="130.828125" y="74">+</tspan>
                </text>
                <text id="+">
                    <tspan x="150.828125" y="114">+</tspan>
                </text>
                <text id="+">
                    <tspan x="130.828125" y="134">+</tspan>
                </text>
                <text id="+">
                    <tspan x="130.828125" y="114">+</tspan>
                </text>
                <text id="+">
                    <tspan x="110.828125" y="114">+</tspan>
                </text>
                <text id="+">
                    <tspan x="110.828125" y="134">+</tspan>
                </text>
                <text id="+">
                    <tspan x="90.828125" y="134">+</tspan>
                </text>
                <text id="+">
                    <tspan x="70.828125" y="134">+</tspan>
                </text>
                <text id="+">
                    <tspan x="90.828125" y="114">+</tspan>
                </text>
                <text id="+">
                    <tspan x="110.828125" y="154">+</tspan>
                </text>
                <text id="+">
                    <tspan x="90.828125" y="174">+</tspan>
                </text>
                <text id="+">
                    <tspan x="90.828125" y="154">+</tspan>
                </text>
                <text id="+">
                    <tspan x="70.828125" y="154">+</tspan>
                </text>
                <text id="+">
                    <tspan x="70.828125" y="174">+</tspan>
                </text>
                <text id="+">
                    <tspan x="50.828125" y="174">+</tspan>
                </text>
                <text id="+">
                    <tspan x="30.828125" y="174">+</tspan>
                </text>
                <text id="+">
                    <tspan x="50.828125" y="154">+</tspan>
                </text>
                <text id="+">
                    <tspan x="80.828125" y="194">+</tspan>
                </text>
                <text id="+">
                    <tspan x="60.828125" y="214">+</tspan>
                </text>
                <text id="+">
                    <tspan x="60.828125" y="194">+</tspan>
                </text>
                <text id="+">
                    <tspan x="40.828125" y="194">+</tspan>
                </text>
                <text id="+">
                    <tspan x="40.828125" y="214">+</tspan>
                </text>
                <text id="+">
                    <tspan x="20.828125" y="214">+</tspan>
                </text>
                <text id="+">
                    <tspan x="0.828125" y="214">+</tspan>
                </text>
                <text id="+">
                    <tspan x="20.828125" y="194">+</tspan>
                </text>
                <text id="+" transform="translate(245.500000, 408.500000) scale(1, -1) translate(-245.500000, -408.500000) ">
                    <tspan x="240.828125" y="414">+</tspan>
                </text>
                <text id="+" transform="translate(225.500000, 408.500000) scale(1, -1) translate(-225.500000, -408.500000) ">
                    <tspan x="220.828125" y="414">+</tspan>
                </text>
                <text id="+" transform="translate(205.500000, 408.500000) scale(1, -1) translate(-205.500000, -408.500000) ">
                    <tspan x="200.828125" y="414">+</tspan>
                </text>
                <text id="+" transform="translate(185.500000, 408.500000) scale(1, -1) translate(-185.500000, -408.500000) ">
                    <tspan x="180.828125" y="414">+</tspan>
                </text>
                <text id="+" transform="translate(235.500000, 388.500000) scale(1, -1) translate(-235.500000, -388.500000) ">
                    <tspan x="230.828125" y="394">+</tspan>
                </text>
                <text id="+" transform="translate(215.500000, 368.500000) scale(1, -1) translate(-215.500000, -368.500000) ">
                    <tspan x="210.828125" y="374">+</tspan>
                </text>
                <text id="+" transform="translate(215.500000, 388.500000) scale(1, -1) translate(-215.500000, -388.500000) ">
                    <tspan x="210.828125" y="394">+</tspan>
                </text>
                <text id="+" transform="translate(195.500000, 388.500000) scale(1, -1) translate(-195.500000, -388.500000) ">
                    <tspan x="190.828125" y="394">+</tspan>
                </text>
                <text id="+" transform="translate(195.500000, 368.500000) scale(1, -1) translate(-195.500000, -368.500000) ">
                    <tspan x="190.828125" y="374">+</tspan>
                </text>
                <text id="+" transform="translate(175.500000, 368.500000) scale(1, -1) translate(-175.500000, -368.500000) ">
                    <tspan x="170.828125" y="374">+</tspan>
                </text>
                <text id="+" transform="translate(155.500000, 368.500000) scale(1, -1) translate(-155.500000, -368.500000) ">
                    <tspan x="150.828125" y="374">+</tspan>
                </text>
                <text id="+" transform="translate(175.500000, 388.500000) scale(1, -1) translate(-175.500000, -388.500000) ">
                    <tspan x="170.828125" y="394">+</tspan>
                </text>
                <text id="+" transform="translate(195.500000, 348.500000) scale(1, -1) translate(-195.500000, -348.500000) ">
                    <tspan x="190.828125" y="354">+</tspan>
                </text>
                <text id="+" transform="translate(175.500000, 328.500000) scale(1, -1) translate(-175.500000, -328.500000) ">
                    <tspan x="170.828125" y="334">+</tspan>
                </text>
                <text id="+" transform="translate(175.500000, 348.500000) scale(1, -1) translate(-175.500000, -348.500000) ">
                    <tspan x="170.828125" y="354">+</tspan>
                </text>
                <text id="+" transform="translate(155.500000, 348.500000) scale(1, -1) translate(-155.500000, -348.500000) ">
                    <tspan x="150.828125" y="354">+</tspan>
                </text>
                <text id="+" transform="translate(155.500000, 328.500000) scale(1, -1) translate(-155.500000, -328.500000) ">
                    <tspan x="150.828125" y="334">+</tspan>
                </text>
                <text id="+" transform="translate(135.500000, 328.500000) scale(1, -1) translate(-135.500000, -328.500000) ">
                    <tspan x="130.828125" y="334">+</tspan>
                </text>
                <text id="+" transform="translate(115.500000, 328.500000) scale(1, -1) translate(-115.500000, -328.500000) ">
                    <tspan x="110.828125" y="334">+</tspan>
                </text>
                <text id="+" transform="translate(135.500000, 348.500000) scale(1, -1) translate(-135.500000, -348.500000) ">
                    <tspan x="130.828125" y="354">+</tspan>
                </text>
                <text id="+" transform="translate(155.500000, 308.500000) scale(1, -1) translate(-155.500000, -308.500000) ">
                    <tspan x="150.828125" y="314">+</tspan>
                </text>
                <text id="+" transform="translate(135.500000, 288.500000) scale(1, -1) translate(-135.500000, -288.500000) ">
                    <tspan x="130.828125" y="294">+</tspan>
                </text>
                <text id="+" transform="translate(135.500000, 308.500000) scale(1, -1) translate(-135.500000, -308.500000) ">
                    <tspan x="130.828125" y="314">+</tspan>
                </text>
                <text id="+" transform="translate(115.500000, 308.500000) scale(1, -1) translate(-115.500000, -308.500000) ">
                    <tspan x="110.828125" y="314">+</tspan>
                </text>
                <text id="+" transform="translate(115.500000, 288.500000) scale(1, -1) translate(-115.500000, -288.500000) ">
                    <tspan x="110.828125" y="294">+</tspan>
                </text>
                <text id="+" transform="translate(95.500000, 288.500000) scale(1, -1) translate(-95.500000, -288.500000) ">
                    <tspan x="90.828125" y="294">+</tspan>
                </text>
                <text id="+" transform="translate(75.500000, 288.500000) scale(1, -1) translate(-75.500000, -288.500000) ">
                    <tspan x="70.828125" y="294">+</tspan>
                </text>
                <text id="+" transform="translate(95.500000, 308.500000) scale(1, -1) translate(-95.500000, -308.500000) ">
                    <tspan x="90.828125" y="314">+</tspan>
                </text>
                <text id="+" transform="translate(115.500000, 268.500000) scale(1, -1) translate(-115.500000, -268.500000) ">
                    <tspan x="110.828125" y="274">+</tspan>
                </text>
                <text id="+" transform="translate(95.500000, 248.500000) scale(1, -1) translate(-95.500000, -248.500000) ">
                    <tspan x="90.828125" y="254">+</tspan>
                </text>
                <text id="+" transform="translate(95.500000, 268.500000) scale(1, -1) translate(-95.500000, -268.500000) ">
                    <tspan x="90.828125" y="274">+</tspan>
                </text>
                <text id="+" transform="translate(75.500000, 268.500000) scale(1, -1) translate(-75.500000, -268.500000) ">
                    <tspan x="70.828125" y="274">+</tspan>
                </text>
                <text id="+" transform="translate(75.500000, 248.500000) scale(1, -1) translate(-75.500000, -248.500000) ">
                    <tspan x="70.828125" y="254">+</tspan>
                </text>
                <text id="+" transform="translate(55.500000, 248.500000) scale(1, -1) translate(-55.500000, -248.500000) ">
                    <tspan x="50.828125" y="254">+</tspan>
                </text>
                <text id="+" transform="translate(35.500000, 248.500000) scale(1, -1) translate(-35.500000, -248.500000) ">
                    <tspan x="30.828125" y="254">+</tspan>
                </text>
                <text id="+" transform="translate(55.500000, 268.500000) scale(1, -1) translate(-55.500000, -268.500000) ">
                    <tspan x="50.828125" y="274">+</tspan>
                </text>
                <text id="+" transform="translate(85.500000, 228.500000) scale(1, -1) translate(-85.500000, -228.500000) ">
                    <tspan x="80.828125" y="234">+</tspan>
                </text>
                <text id="+" transform="translate(65.500000, 228.500000) scale(1, -1) translate(-65.500000, -228.500000) ">
                    <tspan x="60.828125" y="234">+</tspan>
                </text>
                <text id="+" transform="translate(45.500000, 228.500000) scale(1, -1) translate(-45.500000, -228.500000) ">
                    <tspan x="40.828125" y="234">+</tspan>
                </text>
                <text id="+" transform="translate(25.500000, 228.500000) scale(1, -1) translate(-25.500000, -228.500000) ">
                    <tspan x="20.828125" y="234">+</tspan>
                </text>
                <text id="+" transform="translate(455.500000, 8.500000) scale(-1, 1) translate(-455.500000, -8.500000) ">
                    <tspan x="450.828125" y="14">+</tspan>
                </text>
                <text id="+" transform="translate(475.500000, 8.500000) scale(-1, 1) translate(-475.500000, -8.500000) ">
                    <tspan x="470.828125" y="14">+</tspan>
                </text>
                <text id="+" transform="translate(495.500000, 8.500000) scale(-1, 1) translate(-495.500000, -8.500000) ">
                    <tspan x="490.828125" y="14">+</tspan>
                </text>
                <text id="+" transform="translate(515.500000, 8.500000) scale(-1, 1) translate(-515.500000, -8.500000) ">
                    <tspan x="510.828125" y="14">+</tspan>
                </text>
                <text id="+" transform="translate(465.500000, 28.500000) scale(-1, 1) translate(-465.500000, -28.500000) ">
                    <tspan x="460.828125" y="34">+</tspan>
                </text>
                <text id="+" transform="translate(485.500000, 48.500000) scale(-1, 1) translate(-485.500000, -48.500000) ">
                    <tspan x="480.828125" y="54">+</tspan>
                </text>
                <text id="+" transform="translate(485.500000, 28.500000) scale(-1, 1) translate(-485.500000, -28.500000) ">
                    <tspan x="480.828125" y="34">+</tspan>
                </text>
                <text id="+" transform="translate(505.500000, 28.500000) scale(-1, 1) translate(-505.500000, -28.500000) ">
                    <tspan x="500.828125" y="34">+</tspan>
                </text>
                <text id="+" transform="translate(505.500000, 48.500000) scale(-1, 1) translate(-505.500000, -48.500000) ">
                    <tspan x="500.828125" y="54">+</tspan>
                </text>
                <text id="+" transform="translate(525.500000, 48.500000) scale(-1, 1) translate(-525.500000, -48.500000) ">
                    <tspan x="520.828125" y="54">+</tspan>
                </text>
                <text id="+" transform="translate(545.500000, 48.500000) scale(-1, 1) translate(-545.500000, -48.500000) ">
                    <tspan x="540.828125" y="54">+</tspan>
                </text>
                <text id="+" transform="translate(525.500000, 28.500000) scale(-1, 1) translate(-525.500000, -28.500000) ">
                    <tspan x="520.828125" y="34">+</tspan>
                </text>
                <text id="+" transform="translate(505.500000, 68.500000) scale(-1, 1) translate(-505.500000, -68.500000) ">
                    <tspan x="500.828125" y="74">+</tspan>
                </text>
                <text id="+" transform="translate(525.500000, 88.500000) scale(-1, 1) translate(-525.500000, -88.500000) ">
                    <tspan x="520.828125" y="94">+</tspan>
                </text>
                <text id="+" transform="translate(525.500000, 68.500000) scale(-1, 1) translate(-525.500000, -68.500000) ">
                    <tspan x="520.828125" y="74">+</tspan>
                </text>
                <text id="+" transform="translate(545.500000, 68.500000) scale(-1, 1) translate(-545.500000, -68.500000) ">
                    <tspan x="540.828125" y="74">+</tspan>
                </text>
                <text id="+" transform="translate(545.500000, 88.500000) scale(-1, 1) translate(-545.500000, -88.500000) ">
                    <tspan x="540.828125" y="94">+</tspan>
                </text>
                <text id="+" transform="translate(565.500000, 88.500000) scale(-1, 1) translate(-565.500000, -88.500000) ">
                    <tspan x="560.828125" y="94">+</tspan>
                </text>
                <text id="+" transform="translate(585.500000, 88.500000) scale(-1, 1) translate(-585.500000, -88.500000) ">
                    <tspan x="580.828125" y="94">+</tspan>
                </text>
                <text id="+" transform="translate(565.500000, 68.500000) scale(-1, 1) translate(-565.500000, -68.500000) ">
                    <tspan x="560.828125" y="74">+</tspan>
                </text>
                <text id="+" transform="translate(545.500000, 108.500000) scale(-1, 1) translate(-545.500000, -108.500000) ">
                    <tspan x="540.828125" y="114">+</tspan>
                </text>
                <text id="+" transform="translate(565.500000, 128.500000) scale(-1, 1) translate(-565.500000, -128.500000) ">
                    <tspan x="560.828125" y="134">+</tspan>
                </text>
                <text id="+" transform="translate(565.500000, 108.500000) scale(-1, 1) translate(-565.500000, -108.500000) ">
                    <tspan x="560.828125" y="114">+</tspan>
                </text>
                <text id="+" transform="translate(585.500000, 108.500000) scale(-1, 1) translate(-585.500000, -108.500000) ">
                    <tspan x="580.828125" y="114">+</tspan>
                </text>
                <text id="+" transform="translate(585.500000, 128.500000) scale(-1, 1) translate(-585.500000, -128.500000) ">
                    <tspan x="580.828125" y="134">+</tspan>
                </text>
                <text id="+" transform="translate(605.500000, 128.500000) scale(-1, 1) translate(-605.500000, -128.500000) ">
                    <tspan x="600.828125" y="134">+</tspan>
                </text>
                <text id="+" transform="translate(625.500000, 128.500000) scale(-1, 1) translate(-625.500000, -128.500000) ">
                    <tspan x="620.828125" y="134">+</tspan>
                </text>
                <text id="+" transform="translate(605.500000, 108.500000) scale(-1, 1) translate(-605.500000, -108.500000) ">
                    <tspan x="600.828125" y="114">+</tspan>
                </text>
                <text id="+" transform="translate(585.500000, 148.500000) scale(-1, 1) translate(-585.500000, -148.500000) ">
                    <tspan x="580.828125" y="154">+</tspan>
                </text>
                <text id="+" transform="translate(605.500000, 168.500000) scale(-1, 1) translate(-605.500000, -168.500000) ">
                    <tspan x="600.828125" y="174">+</tspan>
                </text>
                <text id="+" transform="translate(605.500000, 148.500000) scale(-1, 1) translate(-605.500000, -148.500000) ">
                    <tspan x="600.828125" y="154">+</tspan>
                </text>
                <text id="+" transform="translate(625.500000, 148.500000) scale(-1, 1) translate(-625.500000, -148.500000) ">
                    <tspan x="620.828125" y="154">+</tspan>
                </text>
                <text id="+" transform="translate(625.500000, 168.500000) scale(-1, 1) translate(-625.500000, -168.500000) ">
                    <tspan x="620.828125" y="174">+</tspan>
                </text>
                <text id="+" transform="translate(645.500000, 168.500000) scale(-1, 1) translate(-645.500000, -168.500000) ">
                    <tspan x="640.828125" y="174">+</tspan>
                </text>
                <text id="+" transform="translate(665.500000, 168.500000) scale(-1, 1) translate(-665.500000, -168.500000) ">
                    <tspan x="660.828125" y="174">+</tspan>
                </text>
                <text id="+" transform="translate(645.500000, 148.500000) scale(-1, 1) translate(-645.500000, -148.500000) ">
                    <tspan x="640.828125" y="154">+</tspan>
                </text>
                <text id="+" transform="translate(615.500000, 188.500000) scale(-1, 1) translate(-615.500000, -188.500000) ">
                    <tspan x="610.828125" y="194">+</tspan>
                </text>
                <text id="+" transform="translate(635.500000, 208.500000) scale(-1, 1) translate(-635.500000, -208.500000) ">
                    <tspan x="630.828125" y="214">+</tspan>
                </text>
                <text id="+" transform="translate(635.500000, 188.500000) scale(-1, 1) translate(-635.500000, -188.500000) ">
                    <tspan x="630.828125" y="194">+</tspan>
                </text>
                <text id="+" transform="translate(655.500000, 188.500000) scale(-1, 1) translate(-655.500000, -188.500000) ">
                    <tspan x="650.828125" y="194">+</tspan>
                </text>
                <text id="+" transform="translate(655.500000, 208.500000) scale(-1, 1) translate(-655.500000, -208.500000) ">
                    <tspan x="650.828125" y="214">+</tspan>
                </text>
                <text id="+" transform="translate(675.500000, 208.500000) scale(-1, 1) translate(-675.500000, -208.500000) ">
                    <tspan x="670.828125" y="214">+</tspan>
                </text>
                <text id="+" transform="translate(695.500000, 208.500000) scale(-1, 1) translate(-695.500000, -208.500000) ">
                    <tspan x="690.828125" y="214">+</tspan>
                </text>
                <text id="+" transform="translate(675.500000, 188.500000) scale(-1, 1) translate(-675.500000, -188.500000) ">
                    <tspan x="670.828125" y="194">+</tspan>
                </text>
                <text id="+" transform="translate(455.500000, 408.500000) scale(-1, -1) translate(-455.500000, -408.500000) ">
                    <tspan x="450.828125" y="414">+</tspan>
                </text>
                <text id="+" transform="translate(475.500000, 408.500000) scale(-1, -1) translate(-475.500000, -408.500000) ">
                    <tspan x="470.828125" y="414">+</tspan>
                </text>
                <text id="+" transform="translate(495.500000, 408.500000) scale(-1, -1) translate(-495.500000, -408.500000) ">
                    <tspan x="490.828125" y="414">+</tspan>
                </text>
                <text id="+" transform="translate(515.500000, 408.500000) scale(-1, -1) translate(-515.500000, -408.500000) ">
                    <tspan x="510.828125" y="414">+</tspan>
                </text>
                <text id="+" transform="translate(465.500000, 388.500000) scale(-1, -1) translate(-465.500000, -388.500000) ">
                    <tspan x="460.828125" y="394">+</tspan>
                </text>
                <text id="+" transform="translate(485.500000, 368.500000) scale(-1, -1) translate(-485.500000, -368.500000) ">
                    <tspan x="480.828125" y="374">+</tspan>
                </text>
                <text id="+" transform="translate(485.500000, 388.500000) scale(-1, -1) translate(-485.500000, -388.500000) ">
                    <tspan x="480.828125" y="394">+</tspan>
                </text>
                <text id="+" transform="translate(505.500000, 388.500000) scale(-1, -1) translate(-505.500000, -388.500000) ">
                    <tspan x="500.828125" y="394">+</tspan>
                </text>
                <text id="+" transform="translate(505.500000, 368.500000) scale(-1, -1) translate(-505.500000, -368.500000) ">
                    <tspan x="500.828125" y="374">+</tspan>
                </text>
                <text id="+" transform="translate(525.500000, 368.500000) scale(-1, -1) translate(-525.500000, -368.500000) ">
                    <tspan x="520.828125" y="374">+</tspan>
                </text>
                <text id="+" transform="translate(545.500000, 368.500000) scale(-1, -1) translate(-545.500000, -368.500000) ">
                    <tspan x="540.828125" y="374">+</tspan>
                </text>
                <text id="+" transform="translate(525.500000, 388.500000) scale(-1, -1) translate(-525.500000, -388.500000) ">
                    <tspan x="520.828125" y="394">+</tspan>
                </text>
                <text id="+" transform="translate(505.500000, 348.500000) scale(-1, -1) translate(-505.500000, -348.500000) ">
                    <tspan x="500.828125" y="354">+</tspan>
                </text>
                <text id="+" transform="translate(525.500000, 328.500000) scale(-1, -1) translate(-525.500000, -328.500000) ">
                    <tspan x="520.828125" y="334">+</tspan>
                </text>
                <text id="+" transform="translate(525.500000, 348.500000) scale(-1, -1) translate(-525.500000, -348.500000) ">
                    <tspan x="520.828125" y="354">+</tspan>
                </text>
                <text id="+" transform="translate(545.500000, 348.500000) scale(-1, -1) translate(-545.500000, -348.500000) ">
                    <tspan x="540.828125" y="354">+</tspan>
                </text>
                <text id="+" transform="translate(545.500000, 328.500000) scale(-1, -1) translate(-545.500000, -328.500000) ">
                    <tspan x="540.828125" y="334">+</tspan>
                </text>
                <text id="+" transform="translate(565.500000, 328.500000) scale(-1, -1) translate(-565.500000, -328.500000) ">
                    <tspan x="560.828125" y="334">+</tspan>
                </text>
                <text id="+" transform="translate(585.500000, 328.500000) scale(-1, -1) translate(-585.500000, -328.500000) ">
                    <tspan x="580.828125" y="334">+</tspan>
                </text>
                <text id="+" transform="translate(565.500000, 348.500000) scale(-1, -1) translate(-565.500000, -348.500000) ">
                    <tspan x="560.828125" y="354">+</tspan>
                </text>
                <text id="+" transform="translate(545.500000, 308.500000) scale(-1, -1) translate(-545.500000, -308.500000) ">
                    <tspan x="540.828125" y="314">+</tspan>
                </text>
                <text id="+" transform="translate(565.500000, 288.500000) scale(-1, -1) translate(-565.500000, -288.500000) ">
                    <tspan x="560.828125" y="294">+</tspan>
                </text>
                <text id="+" transform="translate(565.500000, 308.500000) scale(-1, -1) translate(-565.500000, -308.500000) ">
                    <tspan x="560.828125" y="314">+</tspan>
                </text>
                <text id="+" transform="translate(585.500000, 308.500000) scale(-1, -1) translate(-585.500000, -308.500000) ">
                    <tspan x="580.828125" y="314">+</tspan>
                </text>
                <text id="+" transform="translate(585.500000, 288.500000) scale(-1, -1) translate(-585.500000, -288.500000) ">
                    <tspan x="580.828125" y="294">+</tspan>
                </text>
                <text id="+" transform="translate(605.500000, 288.500000) scale(-1, -1) translate(-605.500000, -288.500000) ">
                    <tspan x="600.828125" y="294">+</tspan>
                </text>
                <text id="+" transform="translate(625.500000, 288.500000) scale(-1, -1) translate(-625.500000, -288.500000) ">
                    <tspan x="620.828125" y="294">+</tspan>
                </text>
                <text id="+" transform="translate(605.500000, 308.500000) scale(-1, -1) translate(-605.500000, -308.500000) ">
                    <tspan x="600.828125" y="314">+</tspan>
                </text>
                <text id="+" transform="translate(585.500000, 268.500000) scale(-1, -1) translate(-585.500000, -268.500000) ">
                    <tspan x="580.828125" y="274">+</tspan>
                </text>
                <text id="+" transform="translate(605.500000, 248.500000) scale(-1, -1) translate(-605.500000, -248.500000) ">
                    <tspan x="600.828125" y="254">+</tspan>
                </text>
                <text id="+" transform="translate(605.500000, 268.500000) scale(-1, -1) translate(-605.500000, -268.500000) ">
                    <tspan x="600.828125" y="274">+</tspan>
                </text>
                <text id="+" transform="translate(625.500000, 268.500000) scale(-1, -1) translate(-625.500000, -268.500000) ">
                    <tspan x="620.828125" y="274">+</tspan>
                </text>
                <text id="+" transform="translate(625.500000, 248.500000) scale(-1, -1) translate(-625.500000, -248.500000) ">
                    <tspan x="620.828125" y="254">+</tspan>
                </text>
                <text id="+" transform="translate(645.500000, 248.500000) scale(-1, -1) translate(-645.500000, -248.500000) ">
                    <tspan x="640.828125" y="254">+</tspan>
                </text>
                <text id="+" transform="translate(665.500000, 248.500000) scale(-1, -1) translate(-665.500000, -248.500000) ">
                    <tspan x="660.828125" y="254">+</tspan>
                </text>
                <text id="+" transform="translate(645.500000, 268.500000) scale(-1, -1) translate(-645.500000, -268.500000) ">
                    <tspan x="640.828125" y="274">+</tspan>
                </text>
                <text id="+" transform="translate(615.500000, 228.500000) scale(-1, -1) translate(-615.500000, -228.500000) ">
                    <tspan x="610.828125" y="234">+</tspan>
                </text>
                <text id="+" transform="translate(635.500000, 228.500000) scale(-1, -1) translate(-635.500000, -228.500000) ">
                    <tspan x="630.828125" y="234">+</tspan>
                </text>
                <text id="+" transform="translate(655.500000, 228.500000) scale(-1, -1) translate(-655.500000, -228.500000) ">
                    <tspan x="650.828125" y="234">+</tspan>
                </text>
                <text id="+" transform="translate(675.500000, 228.500000) scale(-1, -1) translate(-675.500000, -228.500000) ">
                    <tspan x="670.828125" y="234">+</tspan>
                </text>
            </g>
        </g>
    </g>
</svg>